<?xml version="1.0" encoding="UTF-8"?>
<svg id="Layer_1" data-name="Layer 1" xmlns="http://www.w3.org/2000/svg" viewBox="0 0 419.71 318.29">
  <defs>
    <style>
      .cls-1 {
        fill-rule: evenodd;
      }

      .cls-1, .cls-2 {
        fill: #d7b652;
      }
    </style>
  </defs>
  <path class="cls-1" d="M199.35,84.16h0c-5.53,3.35-11.06,4.38-15.95,4.9-1.03.26-1.67.52-2.32.9-.51.26-1.03.64-1.29,1.03-.39.39-.64.77-.9,1.16-.13.39-.39.64-.64.9-.26.26-.51.39-.9.39-1.03.13-2.57-.77-2.44-1.67.13-.39.39-.77.64-1.03,1.29-1.16,3.22-1.55,5.02-1.93.77-.13,1.8-.39,3.09-.52,10.81-1.42,11.19-2.96,15.95-5.28.64-.26,2.7-.64,2.57.39v2.19c.26-.77.64-1.42,1.16-1.93.51-.64,1.03-.9,1.8-1.03.64-.13,1.16.13,1.67.64.51.52.9,1.29,1.16,2.19.26.77.39,1.8.39,2.83v.9c.13-.13.26-.13.39-.26.26-.13.51-.26.77-.39,0-1.8.13-3.74.13-5.67,0-.26.13-.39.51-.39.26-.13.51-.13.77-.13.39,0,.64.13.9.13.26.13.39.26.39.39v4.12c.26-.64.51-1.29.77-1.93.26-.64.64-1.29.9-1.8.39-.52.64-.9,1.03-1.16.26-.26.64-.52,1.03-.52.64,0,1.03.26,1.42.64.26.52.51,1.03.64,1.67.13.64.13,1.42.13,2.19,0,.9-.13,1.67-.13,2.45.26-.64.39-1.29.77-2.06.26-.64.51-1.29.77-1.8.39-.52.77-1.03,1.03-1.29.39-.39.77-.52,1.16-.52.77,0,1.29.26,1.67.77.26.64.51,1.29.64,2.06v2.83c-.13.9-.26,1.93-.26,2.71-.13,1.55-.13,3.22,1.29,4.25,4.5,1.42,13.12-.39,15.95-1.42,1.03-.39,1.93-.64,2.57-.77.64-.13,1.16-.26,1.54-.39.51,0,.9-.13,1.29-.13.51,0,1.16.13,1.54.26.39,0,.64.26.9.52.26.26.26.77.13,1.29-.13.26-.26.52-.39.64-.13.26-.39.39-.64.39-.13.13-.51.13-.77,0-.26-.13-.64-.26-.9-.52-.39-.13-.64-.39-1.16-.52-.39-.26-.9-.39-1.42-.39-.64-.13-1.29,0-2.06.26-9,2.71-15.95,2.06-17.75,1.42-.64-.26-1.67-.64-2.06-1.29-.39-.52-.64-1.16-.64-2.06-.13-.9-.13-1.8-.13-2.83.13-1.03.13-1.93.26-2.83.13-.9.13-1.55.26-2.19,0-.52-.13-.9-.26-.9-.26,0-.51.26-.64.52-.26.39-.51.9-.77,1.42-.26.52-.51,1.16-.64,1.8-.26.64-.51,1.29-.64,1.93-.26.64-.39,1.16-.64,1.67-.13.52-.26.9-.26,1.03-.13.13-.26.26-.51.39h-.9c-.26-.13-.64-.13-.9-.26-.26-.13-.39-.26-.39-.39,0-.26,0-.64.13-1.29,0-.52,0-1.16.13-1.93,0-.64.13-1.42.13-2.06.13-.77.13-1.42.13-1.93v-2.06c-.26,0-.51.26-.77.64-.39.52-.64,1.16-1.03,1.8-.26.77-.51,1.55-.9,2.32-.26.77-.51,1.55-.77,2.19v3.35c0,.13-.13.26-.51.39-.26,0-.51.13-.9,0-.26,0-.64,0-.9-.13-.26,0-.39-.13-.39-.26,0-1.29,0-2.45.13-3.61-.13.13-.26.13-.39.26-.39.13-.64.26-.9.39-.13.26-.13.64-.26.9-.26.9-.64,1.67-1.29,2.32-.51.64-1.29.9-2.19,1.03-.64,0-1.16-.13-1.54-.39-1.16-1.03-.39-2.58.39-3.22.51-.39,1.29-.77,2.19-1.03.13-.39.13-.77.13-1.16.13-.77,0-1.55,0-2.32,0-.64-.13-1.29-.39-1.8-.13-.39-.39-.64-.64-.64-.39.13-.64.26-.9.64-.26.39-.51.77-.77,1.29-.13.52-.39,1.16-.51,1.8-.13.52-.26,1.03-.39,1.55,0,1.16-.13,2.32-.26,3.48,0,1.29-.13,2.45-.39,3.61-.13,1.16-.39,2.32-.64,3.35-.26,1.03-.51,1.93-.9,2.83-.39.77-.77,1.42-1.29,1.93-.51.52-1.03.77-1.67.77-.51,0-1.03-.13-1.29-.52-.39-.39-.51-1.03-.39-1.8,0-.9.39-1.93.9-3.09.64-1.29,1.54-2.71,2.83-4.38.13-.77.13-1.67.13-2.83.13-1.03.13-2.06.13-3.22.13-1.16.13-2.32.13-3.35.13-.64.13-1.29.13-1.93l-.13.13ZM204.11,93.56c.26,0,.51-.26.77-.64.26-.52.39-1.16.51-1.93v-.13c-.64.13-1.16.39-1.54.64-.64.52-.64,2.19.26,2.06h0ZM196.65,104.13c.13.13.26,0,.51-.26.26-.39.39-.77.64-1.42.26-.52.51-1.29.64-2.32.13-.9.39-2.06.39-3.35-.77,1.16-1.29,2.19-1.67,3.09-.39.77-.64,1.55-.77,2.19-.13.64-.26,1.16-.13,1.55,0,.26.13.52.39.52h0Z"/>
  <g>
    <path class="cls-2" d="M124.43,204.18c-.43-1.19-.85-2.39-1.27-3.58-.43-1.19-.85-2.38-1.27-3.57-.43-1.19-.85-2.38-1.27-3.57h-.1c-.07.81-.13,1.54-.18,2.18-.05.64-.11,1.33-.18,2.06s-.13,1.43-.18,2.1c-.05.67-.1,1.23-.13,1.69s-.05.73-.05.83c0,.41.21.62.62.62.11,0,.38,0,.82-.02l.04.08-.18.9c-.46-.03-.85-.05-1.14-.06-.3-.01-.56-.02-.79-.02-.2,0-.4,0-.6.02-.2.01-.39.03-.56.06-.17.03-.36.05-.56.08l.1-.92c.43-.05.73-.19.92-.41.19-.22.31-.59.36-1.12.03-.24.07-.6.12-1.08.05-.48.11-1.03.18-1.65.07-.62.13-1.24.19-1.88.06-.64.12-1.24.18-1.81.06-.57.11-1.05.14-1.44.03-.39.05-.63.05-.73,0-.24-.06-.43-.18-.58-.12-.15-.31-.26-.56-.35-.25-.09-.58-.14-.98-.17l-.06-.1.16-.7c.54.03.99.05,1.33.07.34.02.62.03.84.03.2,0,.4,0,.61-.02.21-.01.45-.03.75-.06.45,1.45.88,2.77,1.28,3.98s.76,2.25,1.08,3.12c.31.88.65,1.8,1,2.77h.1c.36-.97.7-1.89,1.01-2.78.32-.88.68-1.92,1.09-3.11.41-1.19.85-2.51,1.33-3.94,0-.01.08-.01.25,0s.35.02.56.03c.2,0,.37,0,.51,0,.2,0,.47,0,.82-.03.34-.02.79-.05,1.33-.09l.04.08-.1.74c-.57.07-.98.18-1.21.35-.24.17-.36.42-.36.75,0,.12,0,.38.03.8s.05.91.09,1.51c.04.6.08,1.24.13,1.92.05.68.09,1.36.14,2.04.05.68.09,1.29.13,1.85.09.77.2,1.28.32,1.52.12.25.34.37.66.37.12,0,.31-.01.56-.04l.04.08-.18.9c-.42-.03-.79-.04-1.08-.05s-.57,0-.81,0c-.21,0-.44,0-.68.02-.24.01-.46.03-.68.06-.21.03-.45.05-.72.08l.08-.92c.41-.05.71-.16.9-.32.19-.16.28-.38.28-.68,0-.12-.02-.41-.05-.87-.03-.46-.08-1.01-.13-1.66-.05-.65-.11-1.33-.16-2.03-.05-.7-.11-1.36-.16-1.97-.05-.61-.11-1.3-.18-2.07h-.1c-.32.88-.64,1.75-.96,2.64s-.64,1.77-.97,2.66c-.33.89-.65,1.77-.97,2.66-.32.88-.64,1.76-.96,2.64l-.48.14Z"/>
    <path class="cls-2" d="M140.59,204.04c-.53,0-.94-.14-1.24-.41-.3-.27-.47-.67-.53-1.2l-.08-.02c-.32.32-.62.59-.91.83-.28.23-.54.41-.76.54-.22.13-.4.19-.53.19-.49,0-.93-.11-1.31-.32-.38-.21-.69-.5-.91-.88-.22-.37-.33-.8-.33-1.27,0-.38.1-.72.29-1.01.19-.29.45-.48.77-.58l3.78-1.03.02-.88c0-.66-.15-1.18-.46-1.55s-.74-.56-1.29-.56c-.37,0-.76.09-1.17.26-.41.17-.82.42-1.21.74l-.1-.06-.24-.86c.34-.2.73-.41,1.15-.63.42-.22.83-.4,1.21-.55.38-.15.68-.22.88-.22.58,0,1.08.1,1.49.31.41.21.73.5.94.88s.33.84.33,1.38c0,.17-.02.45-.05.84-.03.39-.08.81-.13,1.28-.05.47-.1.93-.13,1.36-.03.44-.05.8-.05,1.09s.07.52.22.68c.15.16.34.24.6.24.23,0,.45-.06.68-.17.23-.11.4-.22.52-.33l.28.32c-.11.17-.25.37-.43.59-.18.22-.38.42-.6.61-.22.19-.46.32-.71.4ZM136.89,202.6c.25,0,.55-.09.89-.27.34-.18.65-.41.93-.69l.1-2.03-2.71.82c-.38.12-.58.4-.58.84,0,.37.13.69.39.94.26.26.59.39.98.39Z"/>
    <path class="cls-2" d="M143.14,203.1c.36-.05.61-.15.76-.29.15-.14.23-.35.26-.63s.04-.64.04-1.07v-9.77c0-.72-.25-1.07-.74-1.07-.11,0-.27.03-.5.08,0-.07,0-.13.01-.19,0-.06.02-.12.03-.17l.04-.38c.34-.04.69-.09,1.03-.16.34-.07.66-.13.95-.2s.61-.14.96-.22l.12.26c-.05.09-.11.39-.16.9-.05.5-.1,1.17-.15,1.99-.05.82-.09,1.75-.13,2.8s-.07,2.15-.09,3.32c-.02,1.17-.03,2.36-.03,3.55,0,.41.06.7.17.87s.3.25.55.25c.12,0,.35-.01.7-.04l.04.08-.18.86c-.24-.01-.45-.02-.64-.03-.19,0-.38-.01-.59-.02s-.4,0-.59,0c-.28,0-.57,0-.88.03-.31.02-.67.05-1.09.09l.1-.82ZM146.04,199.14l.04-.32,2.37-2.27c.19-.17.31-.31.38-.41.07-.1.1-.2.1-.29,0-.15-.09-.25-.26-.32-.17-.07-.45-.1-.84-.1l-.06-.1.18-.58c.48.01.87.02,1.18.03.31,0,.59.01.83.01.25,0,.52-.01.82-.03.29-.02.65-.05,1.07-.09l.06.1-.16.62c-.48.13-.96.39-1.44.77s-.96.8-1.43,1.26c-.47.46-.93.91-1.36,1.33l2.09,2.69c.46.58.88,1,1.24,1.25.36.25.75.38,1.16.38l.06.1-.12.58c-.41.11-.73.19-.97.24-.23.05-.4.08-.51.08-.13,0-.26-.02-.37-.06s-.22-.09-.33-.14c-.21-.11-.42-.28-.63-.51-.21-.23-.46-.56-.77-.99l-2.35-3.24Z"/>
    <path class="cls-2" d="M156.85,204.04c-.84,0-1.57-.19-2.19-.56-.62-.37-1.11-.89-1.46-1.54s-.53-1.42-.53-2.3c0-.68.12-1.32.35-1.93.23-.61.55-1.15.97-1.62.41-.47.88-.84,1.4-1.11s1.08-.41,1.68-.41c1.98,0,2.96.96,2.96,2.88,0,.17-.01.35-.04.54-.03.19-.05.33-.08.44l-.26.24h-5.49c-.01,1.18.2,2.11.65,2.8.44.68,1.07,1.08,1.88,1.19s1.76-.08,2.87-.59l.12.04.22.58c-.27.19-.58.38-.95.6-.36.21-.73.39-1.1.54-.37.15-.7.22-.99.22ZM154.24,197.93l3.6-.18c.2-.03.33-.07.4-.14s.1-.2.1-.4c0-.53-.14-.94-.43-1.21-.29-.28-.69-.42-1.22-.42-.61,0-1.14.21-1.59.63s-.74.99-.86,1.72Z"/>
    <path class="cls-2" d="M162.66,196.89c0-.34-.06-.61-.18-.8-.12-.19-.31-.28-.56-.28-.11,0-.27.03-.5.08l.08-.74c.31-.05.62-.11.96-.18.33-.07.64-.13.93-.2.28-.07.61-.14.97-.22l.12.24c-.07.17-.13.47-.19.88s-.12.91-.17,1.46c-.05.56-.09,1.14-.12,1.76-.03.62-.04,1.22-.04,1.8,0,1.3.53,1.95,1.59,1.95.46,0,.9-.13,1.3-.39.4-.26.77-.51,1.1-.75v-4.62c0-.4-.07-.68-.22-.84-.15-.16-.4-.24-.78-.24-.05,0-.21,0-.48.02l.08-.72c.36-.05.72-.11,1.07-.18.36-.07.69-.13.98-.19.3-.06.63-.13,1-.21l.12.24c-.08.2-.15.64-.22,1.33-.07.69-.12,1.53-.16,2.51s-.06,2-.06,3.06c0,.29.07.52.22.68.15.16.34.24.6.24.21,0,.41-.04.59-.13.18-.09.38-.21.61-.37l.28.32c-.23.32-.43.58-.61.8s-.37.4-.57.56c-.2.16-.38.24-.56.24-1.07,0-1.66-.54-1.77-1.61l-.1-.04c-.64.49-1.21.89-1.72,1.19-.51.3-.86.46-1.04.46-.85,0-1.5-.2-1.96-.6-.46-.4-.69-.97-.69-1.71l.08-4.84Z"/>
    <path class="cls-2" d="M172.62,207.74c.42-.05.7-.17.83-.35.13-.18.19-.54.19-1.08,0-.21,0-.52,0-.94,0-.41.01-.84.02-1.28,0-.44,0-.81,0-1.08v-5.93c0-.45-.07-.77-.22-.94s-.4-.27-.76-.27h-.22l-.06-.08.06-.66c.46-.08.91-.16,1.33-.25.43-.09.91-.2,1.45-.33l.12.16c-.11.45-.17.81-.2,1.07l.08.14c.58-.41,1.08-.73,1.48-.96.4-.23.68-.34.83-.34.77,0,1.44.18,2.01.53.57.35,1.02.84,1.34,1.47.33.63.49,1.36.49,2.2,0,.72-.13,1.39-.39,2.02-.26.63-.62,1.18-1.07,1.66-.46.48-.98.85-1.58,1.12-.6.27-1.23.41-1.91.41-.16,0-.35,0-.58-.02s-.52-.03-.88-.06c0,.33,0,.67,0,1.01s0,.69,0,1.03c0,.61.06,1.02.19,1.24.13.22.37.33.75.33.11,0,.22,0,.34,0,.12,0,.23,0,.34,0l.04.06-.16.76h-1.89c-.37,0-.72.01-1.04.03-.33.02-.68.06-1.06.11l.1-.78ZM177.02,202.94c.89,0,1.59-.3,2.1-.91.51-.6.77-1.43.77-2.48,0-.68-.12-1.28-.35-1.82-.23-.54-.55-.97-.94-1.28-.4-.32-.84-.48-1.33-.48-.27,0-.59.09-.97.27-.39.18-.75.42-1.09.71-.03.54-.05,1.14-.08,1.79-.03.65-.05,1.31-.06,1.97s-.02,1.28-.02,1.85c.27.11.58.2.95.27.36.07.71.11,1.04.11Z"/>
    <path class="cls-2" d="M190.43,204.04c-.62,0-1.17-.06-1.64-.17-.47-.11-.97-.28-1.48-.51l-.1-.2c.05-.36.09-.69.12-1.01.03-.31.05-.68.08-1.1.03-.43.04-.88.04-1.35l.9-.1c0,.96.07,1.68.2,2.18.13.5.38.84.76,1.01s.92.27,1.63.27c.82,0,1.49-.2,2-.59.51-.39.77-.93.77-1.6,0-.44-.15-.82-.44-1.13-.29-.32-.67-.61-1.12-.88-.46-.26-.94-.53-1.46-.8-.53-.28-1.04-.58-1.54-.9-.5-.32-.91-.69-1.22-1.1s-.48-.91-.48-1.48c0-.7.2-1.33.61-1.89.4-.56.95-1,1.64-1.32.69-.32,1.47-.49,2.33-.49.6,0,1.12.04,1.58.12.46.08.95.21,1.46.38l.06.12c-.12.61-.21,1.17-.28,1.68s-.12,1.07-.16,1.68l-.78.08-.12-.1c.04-.38.06-.73.06-1.03,0-.7-.17-1.19-.51-1.45s-.96-.4-1.86-.4c-.73,0-1.33.18-1.8.55-.47.37-.71.82-.71,1.36,0,.4.13.75.38,1.06.25.31.58.59,1,.85s.86.5,1.33.76c.58.29,1.16.6,1.72.94.56.33,1.03.71,1.4,1.13s.56.94.56,1.55c0,.76-.21,1.43-.63,2.01s-1,1.04-1.73,1.37c-.74.33-1.59.5-2.56.5Z"/>
    <path class="cls-2" d="M200.72,204.04c-.9,0-1.54-.18-1.91-.55-.37-.36-.56-.98-.56-1.86v-4.89c0-.36-.08-.61-.24-.76-.16-.15-.46-.23-.9-.24l-.08-.12.1-.6c.32-.16.63-.34.93-.55.3-.21.56-.4.8-.6.23-.19.48-.41.75-.67l.4.16c-.07.5-.12,1-.16,1.49l2.93-.06.06.06-.18,1.05-2.89-.06c-.04.62-.07,1.35-.1,2.19-.03.84-.04,1.76-.04,2.79,0,.68.12,1.15.35,1.43s.63.42,1.2.42c.33,0,.78-.12,1.35-.36l.2.52c-.32.24-.59.44-.83.6-.23.16-.46.3-.68.42-.22.12-.39.18-.51.18Z"/>
    <path class="cls-2" d="M204.98,196.89c0-.34-.06-.61-.18-.8-.12-.19-.31-.28-.56-.28-.11,0-.27.03-.5.08l.08-.74c.31-.05.62-.11.96-.18.33-.07.64-.13.93-.2.28-.07.61-.14.97-.22l.12.24c-.07.17-.13.47-.19.88s-.12.91-.17,1.46c-.05.56-.09,1.14-.12,1.76-.03.62-.04,1.22-.04,1.8,0,1.3.53,1.95,1.59,1.95.46,0,.9-.13,1.3-.39.4-.26.77-.51,1.1-.75v-4.62c0-.4-.07-.68-.22-.84-.15-.16-.4-.24-.78-.24-.05,0-.21,0-.48.02l.08-.72c.36-.05.72-.11,1.07-.18.36-.07.69-.13.98-.19.3-.06.63-.13,1-.21l.12.24c-.08.2-.15.64-.22,1.33-.07.69-.12,1.53-.16,2.51s-.06,2-.06,3.06c0,.29.07.52.22.68.15.16.34.24.6.24.21,0,.41-.04.59-.13.18-.09.38-.21.61-.37l.28.32c-.23.32-.43.58-.61.8s-.37.4-.57.56c-.2.16-.38.24-.56.24-1.07,0-1.66-.54-1.77-1.61l-.1-.04c-.64.49-1.21.89-1.72,1.19-.51.3-.86.46-1.04.46-.85,0-1.5-.2-1.96-.6-.46-.4-.69-.97-.69-1.71l.08-4.84Z"/>
    <path class="cls-2" d="M222.9,204.04c-1.03,0-1.62-.47-1.77-1.41l-.14-.06c-.69.46-1.24.82-1.65,1.05s-.69.36-.84.36c-.76,0-1.42-.18-2-.53s-1.03-.84-1.35-1.47c-.33-.63-.49-1.36-.49-2.2,0-.96.22-1.83.67-2.62s1.04-1.42,1.8-1.89c.76-.47,1.59-.71,2.49-.71.19,0,.39,0,.62.02.23.01.48.03.76.06v-3.3c0-.37-.06-.64-.18-.82-.12-.17-.31-.26-.56-.26-.11,0-.27.03-.5.08l.08-.74c.34-.04.69-.09,1.03-.16s.66-.13.96-.2.61-.14.96-.22l.12.26c-.05.09-.11.39-.16.9-.05.5-.1,1.17-.15,1.99s-.09,1.75-.13,2.78c-.04,1.03-.07,2.12-.09,3.27-.02,1.15-.03,2.31-.03,3.48,0,.29.07.52.22.68.15.16.34.24.6.24.21,0,.41-.04.59-.13.18-.09.38-.21.61-.37l.28.32c-.19.27-.36.49-.52.69-.16.19-.34.37-.55.55-.21.17-.43.29-.67.36ZM218.82,202.68c.24,0,.48-.05.74-.16s.49-.23.71-.37c.22-.14.46-.31.73-.53v-5.45c-.69-.3-1.33-.46-1.93-.46-.89,0-1.59.3-2.1.91-.51.6-.77,1.43-.77,2.48,0,.66.12,1.27.35,1.81.23.54.55.98.95,1.29.4.32.84.48,1.33.48Z"/>
    <path class="cls-2" d="M225.59,203.22c.4-.11.68-.26.85-.47s.26-.48.26-.83v-5.05c0-.37-.06-.64-.18-.82-.12-.17-.31-.26-.56-.26-.11,0-.27.03-.5.08l.08-.74c.33-.05.67-.11,1.01-.18.34-.07.65-.13.92-.19s.59-.13.94-.21l.1.24c-.05.13-.11.43-.17.88-.06.46-.11,1.02-.15,1.67s-.07,1.37-.1,2.15c-.03.78-.04,1.56-.04,2.34,0,.38.05.67.16.85.11.18.28.27.54.27.12,0,.35-.01.7-.04l.04.08-.16.86c-.23-.01-.43-.02-.61-.03-.18,0-.37-.01-.58-.02-.21,0-.4,0-.59,0-.28,0-.58.02-.9.06s-.7.1-1.15.18l.08-.82ZM227.26,192.22c-.33,0-.58-.11-.74-.32-.16-.21-.24-.44-.24-.7,0-.32.11-.59.34-.83.23-.23.5-.35.84-.35s.56.1.73.31c.17.21.25.44.25.71,0,.32-.11.59-.33.83-.22.23-.5.35-.85.35Z"/>
    <path class="cls-2" d="M234.82,204.04c-.76,0-1.43-.19-2.01-.56-.58-.37-1.04-.89-1.36-1.56-.33-.67-.49-1.44-.49-2.3,0-.96.2-1.81.61-2.58.4-.76.96-1.37,1.66-1.81.7-.44,1.49-.67,2.35-.67.76,0,1.43.19,2.01.56.58.37,1.04.89,1.36,1.55.32.66.49,1.43.49,2.31,0,.94-.2,1.8-.61,2.57-.4.77-.96,1.38-1.65,1.82-.7.44-1.48.67-2.36.67ZM235.38,203.06c.74,0,1.33-.3,1.77-.91.44-.6.66-1.42.66-2.46,0-.8-.12-1.5-.36-2.11-.24-.61-.57-1.09-1-1.43-.43-.34-.92-.52-1.47-.52-.74,0-1.33.31-1.77.91-.44.61-.66,1.44-.66,2.49,0,.8.12,1.5.36,2.1.24.6.57,1.07,1,1.41.42.34.91.51,1.47.51Z"/>
    <path class="cls-2" d="M255.93,204.36c-.05,0-.29-.18-.72-.54-.43-.36-1.03-.88-1.81-1.57-.56.56-1.19,1-1.89,1.31-.7.32-1.39.48-2.07.48-.86,0-1.62-.14-2.26-.42-.64-.28-1.14-.67-1.48-1.18-.35-.51-.52-1.12-.52-1.82,0-.57.13-1.06.4-1.48s.57-.76.92-1.02c.34-.26.78-.53,1.31-.8v-.14c-.56-.58-.97-1.13-1.23-1.64s-.4-1-.4-1.48c0-.61.17-1.15.52-1.62s.82-.85,1.41-1.12c.6-.28,1.27-.42,2.03-.42s1.53.15,2.41.46l.04.3-.96,1.47s-.06,0-.1,0c-.04,0-.07,0-.1,0-.48-.44-.86-.73-1.13-.87s-.6-.21-.98-.21c-.53,0-.95.14-1.27.41-.32.27-.48.64-.48,1.1,0,.44.09.85.26,1.24s.48.82.92,1.28c.44.46,1.05,1.03,1.83,1.71l3.18,2.75c.24-.48.36-1.05.36-1.71,0-.8-.12-1.39-.37-1.77-.25-.38-.64-.58-1.18-.58-.17,0-.35.02-.53.05s-.38.08-.61.13l-.28-.86c.38-.23.74-.34,1.05-.36l4.1-.24c.62-.05,1.03-.09,1.21-.12.19-.03.29-.06.32-.1l.2.48-.26.62c-.09.17-.22.28-.39.33-.17.05-.5.07-1,.07h-1.99l-.06.12c.26.24.47.53.62.87.15.34.22.7.22,1.08,0,.41-.07.83-.2,1.26-.13.43-.33.85-.6,1.24l2.79,2.35v.32c-.33.2-.59.35-.79.46-.19.11-.34.16-.45.16ZM250,202.78c.54,0,1.06-.09,1.56-.26.5-.17.93-.42,1.3-.76l-4.48-4c-.52.24-.93.58-1.24,1.02s-.47.92-.47,1.42c0,.77.3,1.39.91,1.86.6.47,1.41.71,2.42.71Z"/>
    <path class="cls-2" d="M266.32,204.04c-.62,0-1.17-.06-1.64-.17-.47-.11-.97-.28-1.48-.51l-.1-.2c.05-.36.09-.69.12-1.01.03-.31.05-.68.08-1.1.03-.43.04-.88.04-1.35l.9-.1c0,.96.07,1.68.2,2.18.13.5.38.84.76,1.01s.92.27,1.63.27c.82,0,1.49-.2,2-.59.51-.39.77-.93.77-1.6,0-.44-.15-.82-.44-1.13-.29-.32-.67-.61-1.12-.88-.46-.26-.94-.53-1.46-.8-.53-.28-1.04-.58-1.54-.9-.5-.32-.91-.69-1.22-1.1s-.48-.91-.48-1.48c0-.7.2-1.33.61-1.89.4-.56.95-1,1.64-1.32.69-.32,1.47-.49,2.33-.49.6,0,1.12.04,1.58.12.46.08.95.21,1.46.38l.06.12c-.12.61-.21,1.17-.28,1.68s-.12,1.07-.16,1.68l-.78.08-.12-.1c.04-.38.06-.73.06-1.03,0-.7-.17-1.19-.51-1.45s-.96-.4-1.86-.4c-.73,0-1.33.18-1.8.55-.47.37-.71.82-.71,1.36,0,.4.13.75.38,1.06.25.31.58.59,1,.85s.86.5,1.33.76c.58.29,1.16.6,1.72.94.56.33,1.03.71,1.4,1.13s.56.94.56,1.55c0,.76-.21,1.43-.63,2.01s-1,1.04-1.73,1.37c-.74.33-1.59.5-2.56.5Z"/>
    <path class="cls-2" d="M279.51,204.04c-.53,0-.94-.14-1.24-.41-.3-.27-.47-.67-.53-1.2l-.08-.02c-.32.32-.62.59-.91.83-.28.23-.54.41-.76.54-.22.13-.4.19-.53.19-.49,0-.93-.11-1.31-.32-.38-.21-.69-.5-.91-.88-.22-.37-.33-.8-.33-1.27,0-.38.1-.72.29-1.01.19-.29.45-.48.77-.58l3.78-1.03.02-.88c0-.66-.15-1.18-.46-1.55s-.74-.56-1.29-.56c-.37,0-.76.09-1.17.26-.41.17-.82.42-1.21.74l-.1-.06-.24-.86c.34-.2.73-.41,1.15-.63.42-.22.83-.4,1.21-.55.38-.15.68-.22.88-.22.58,0,1.08.1,1.49.31.41.21.73.5.94.88s.33.84.33,1.38c0,.17-.02.45-.05.84-.03.39-.08.81-.13,1.28-.05.47-.1.93-.13,1.36-.03.44-.05.8-.05,1.09s.07.52.22.68c.15.16.34.24.6.24.23,0,.45-.06.68-.17.23-.11.4-.22.52-.33l.28.32c-.11.17-.25.37-.43.59-.18.22-.38.42-.6.61-.22.19-.46.32-.71.4ZM275.81,202.6c.25,0,.55-.09.89-.27.34-.18.65-.41.93-.69l.1-2.03-2.71.82c-.38.12-.58.4-.58.84,0,.37.13.69.39.94.26.26.59.39.98.39Z"/>
    <path class="cls-2" d="M281.92,204.04l.08-.82c.38-.11.65-.24.81-.41.15-.17.24-.39.27-.67s.04-.62.04-1.03v-9.77c0-.33-.03-.57-.09-.73-.06-.15-.17-.25-.34-.29-.17-.04-.42-.04-.75,0l-.06-.04.08-.68c.49-.07.98-.15,1.47-.24.49-.09.98-.2,1.47-.34l.12.26c-.05.09-.11.4-.16.91-.05.51-.1,1.18-.15,2.01-.05.83-.09,1.77-.13,2.82-.04,1.05-.07,2.16-.09,3.32-.02,1.17-.03,2.33-.03,3.5,0,.4.05.68.16.85.11.17.28.26.54.26l.7-.04.04.08-.16.86c-.21-.01-.49-.03-.85-.04-.35-.01-.66-.02-.93-.02-.24,0-.54.02-.91.07-.37.05-.75.1-1.14.17Z"/>
    <path class="cls-2" d="M290.81,204.04c-.76,0-1.43-.19-2.01-.56-.58-.37-1.04-.89-1.36-1.56-.33-.67-.49-1.44-.49-2.3,0-.96.2-1.81.61-2.58.4-.76.96-1.37,1.66-1.81.7-.44,1.49-.67,2.35-.67.76,0,1.43.19,2.01.56.58.37,1.04.89,1.36,1.55.32.66.49,1.43.49,2.31,0,.94-.2,1.8-.61,2.57-.4.77-.96,1.38-1.65,1.82-.7.44-1.48.67-2.36.67ZM291.37,203.06c.74,0,1.33-.3,1.77-.91.44-.6.66-1.42.66-2.46,0-.8-.12-1.5-.36-2.11-.24-.61-.57-1.09-1-1.43-.43-.34-.92-.52-1.47-.52-.74,0-1.33.31-1.77.91-.44.61-.66,1.44-.66,2.49,0,.8.12,1.5.36,2.1.24.6.57,1.07,1,1.41.42.34.91.51,1.47.51Z"/>
    <path class="cls-2" d="M302.65,203.22c.4-.11.68-.26.86-.47s.26-.48.26-.83l.08-3.94c0-.66-.14-1.17-.43-1.53-.29-.36-.69-.54-1.22-.54-.32,0-.64.07-.97.2-.33.13-.63.28-.89.44-.26.16-.45.29-.59.4-.01.34-.03.75-.05,1.22-.02.47-.04.95-.06,1.44-.02.49-.04.94-.05,1.33-.01.4-.02.7-.02.9,0,.41.06.7.17.87s.29.25.55.25c.12,0,.35-.01.7-.04l.04.08-.18.86c-.4-.03-.74-.04-1.01-.05-.28,0-.54,0-.8,0-.28,0-.57,0-.88.03-.31.02-.67.05-1.09.09l.1-.82c.38-.07.66-.19.82-.36.16-.17.24-.44.24-.82v-4.86c0-.45-.07-.77-.22-.94-.15-.18-.4-.27-.76-.27h-.22l-.06-.08.06-.66c.46-.08.91-.16,1.33-.25.42-.09.91-.2,1.45-.33l.12.16c-.12.53-.19.97-.22,1.31l.04.06c.12-.08.31-.2.57-.37.26-.17.54-.34.84-.51s.59-.32.87-.45c.28-.13.5-.19.66-.19.84,0,1.5.23,1.99.7.49.46.74,1.09.74,1.87,0,.17-.01.46-.04.86-.03.4-.06.84-.1,1.33-.04.49-.07.96-.1,1.41s-.04.82-.04,1.11c0,.38.05.67.16.85s.29.27.54.27c.12,0,.35-.01.7-.04l.04.08-.16.86c-.23-.01-.43-.02-.61-.03-.18,0-.37-.01-.58-.02s-.4,0-.59,0c-.21,0-.43.01-.67.04s-.45.05-.67.08-.45.07-.72.12l.08-.82Z"/>
  </g>
  <rect class="cls-2" x="199.87" y="56.34" width="24.26" height="1.53"/>
  <rect class="cls-2" x="199.87" y="230.95" width="24.26" height="1.53"/>
  <path class="cls-2" d="M384.62,137.71c0,.07-.01.14-.02.21,0-.07.01-.14.02-.21Z"/>
  <path class="cls-2" d="M337.02,29.16s-.08-.03-.12-.05c.04.02.08.03.12.05Z"/>
  <path class="cls-2" d="M356.18,36.63s0-.02,0-.03c0,0,0,.02,0,.03Z"/>
  <path class="cls-2" d="M352.12,32.46s.03.08.05.12c-.02-.04-.03-.08-.05-.12,0,0,0,0,0,0Z"/>
  <path class="cls-2" d="M336.53,50.6s-.05-.02-.08-.03c.03,0,.05.02.08.03Z"/>
  <path class="cls-2" d="M347.12,42.47s-.06,0-.08,0c.03,0,.06,0,.08,0Z"/>
  <path class="cls-2" d="M370.4,42.83s0,.05,0,.07c0-.02,0-.05,0-.07Z"/>
  <path class="cls-2" d="M343.81,63.23h.01s-.02,0-.03,0c0,0,0,0,.01,0Z"/>
  <path class="cls-2" d="M348.23,64.55s-.05,0-.08,0c.03,0,.05,0,.08,0Z"/>
  <path class="cls-2" d="M384.81,66.36s-.01.06-.02.09c0-.03.01-.06.02-.09Z"/>
  <path class="cls-2" d="M378.85,87.52s-.02-.02-.03-.03c0,0,0,.01.01.02-.01-.02-.02-.03-.04-.05.02.02.03.05.05.07Z"/>
  <path class="cls-2" d="M378.22,85.33s.02.02.03.04c0-.01-.02-.02-.03-.04Z"/>
  <path class="cls-2" d="M354.29,80.26s0,0,0,.01h0Z"/>
  <path class="cls-2" d="M392.71,71.93s.04-.03.06-.05c-.02.01-.04.03-.06.05Z"/>
  <path class="cls-2" d="M380.96,120.55c.05.04.11.09.16.13-.05-.04-.11-.09-.16-.13Z"/>
  <path class="cls-2" d="M381.12,120.68s.03.03.05.04c-.02-.01-.03-.03-.05-.04Z"/>
  <path class="cls-2" d="M357.22,100.01s.02,0,.03,0c0,0-.02,0-.03,0Z"/>
  <path class="cls-2" d="M354,104.95s.01.03.02.05c0-.02-.01-.03-.02-.05Z"/>
  <path class="cls-2" d="M391.98,128.28s.04-.03.06-.05c-.02.02-.04.03-.06.05Z"/>
  <path class="cls-2" d="M392.5,116.26s0,0,0,0c0,0,0-.02.01-.03,0,0,0,.02-.01.02Z"/>
  <path class="cls-2" d="M385.13,156.38s0,0,0,0c0,0,0,0,0,0Z"/>
  <path class="cls-2" d="M406.59,147.19c.14-3.03-2.16-6.16-5.4-5.85-7.77.97-11.91,9.27-16.05,15.04,0,0,.01-.02.02-.03-.01.01-.02.03-.03.05.02-.02.03-.04.05-.06-.02.03-.05.06-.07.09.01-.01.02-.03.03-.04-.05.06-.09.12-.14.18.03-.04.06-.08.09-.11-.05.06-.09.11-.14.17,0,0,0,0,.01-.01-.04.05-.08.1-.12.15,0-.01.02-.02.03-.04-1.65,1.94-3.38,3.84-4.69,6.04,2.17-8.36,3.72-16.88,4.49-25.49,0,.07-.01.14-.02.21.02-.2.04-.41.06-.61,0,.03,0,.05,0,.08.14-1.38.27-2.77.36-4.15,2-1.81,4.65-2.64,6.73-4.36-.04.03-.07.06-.11.09.1-.08.21-.16.31-.24,0,0-.02.01-.03.02.04-.03.07-.05.11-.08,0,0-.01,0-.02.01,4.83-3.54,9.76-8.37,10.81-14.51.53-4.33-3.41-8-7-4.32-4.64,6.25-6.56,14-10.63,20.63.4-8.01.25-16.06-.69-24.03,8.02-7.56,16.55-18.65,14.5-30.3-.77-2.63-3.53-6.15-6.36-3.74,0,0,.01,0,.02-.01-4.26,4.09-3.61,10.79-4.76,16.17,0-.04,0-.07.02-.11-.03.19-.06.39-.09.58,0-.01,0-.03,0-.04,0,.07-.02.13-.03.2,0,0,0-.01,0-.02-.01.06-.02.12-.03.19,0,0,0-.02,0-.02,0,.02,0,.04,0,.06,0,0,0-.01,0-.02-1.13,4.92-1.45,10.18-3.56,14.8-1.04-8.27-1.76-16.64-4.71-24.5,14.6-24.97.79-43.47-2.78-27.43-.62,8.19,2.83,16.1,1.75,24.32-2.14-7.9-6.56-14.79-10.93-21.61.14-.57.42-1.1.57-1.67,0,.02-.01.04-.02.07,9.29-25.97-9.58-29.25-3.08-5.8,0-.02,0-.03,0-.05.01.06.02.12.04.18,0-.03-.01-.05-.02-.07,0,.04.01.07.02.1,0,.02,0,.04.01.06,0,0,0,0,0-.01.45,2.08,1.35,4.05,1.74,6.14-3.3-4.18-6.75-8.28-10.56-12.01-.15-1.52-.34-3.2-.09-4.82,0,.01,0,.02,0,.03,0-.05.01-.11.02-.16,0,.03,0,.06-.01.1.23-5.73,3.08-21.31-6.06-20.55.02,0,.03-.01.05-.02-.05.02-.09.04-.14.06.02,0,.04-.01.06-.02-5.15,4-.04,13.12,1.44,18.2-.01-.03-.02-.06-.04-.09.09.24.19.49.29.73-.02-.05-.04-.1-.06-.15.05.12.1.24.14.36-.02-.05-.04-.1-.06-.15.17.43.33.86.5,1.28-.02-.05-.04-.1-.06-.15.28.72.58,1.44.88,2.16-2.82-3.07-6.45-5.19-9.86-7.54-4.53-4.64-10.27-8.63-16.33-11.09,0,0,.02,0,.03,0-4.34-1.71-11.97,1.47-6.46,6.14,5.33,4.39,12.87,3.95,19.35,5.05,0,0-.02,0-.03,0,1.01-.08,1.91.86,2.83.62,5.95,3.49,10.79,8.31,15.43,13.33-6.36-3.65-21.59-5.41-24.62,3.02,1.86,3.78,6.51,3.53,10.03,2.64,5.36-.9,10.43-4.04,15.79-4.31,1.78,2.05,3.5,4.14,5.23,6.24-.03-.04-.06-.08-.1-.12,2.15,2.66,3.85,5.63,5.56,8.58-6.38-5.02-16.14-6.61-23.98-4.69-7.43,2.36-4.94,9.03,2.12,8.41-.01,0-.02,0-.03,0,.03,0,.06,0,.08,0,.06,0,.13,0,.19,0-.02,0-.03,0-.05,0,.07,0,.13,0,.2,0-.03,0-.05,0-.08,0,27.44-2.78,22.36-8.65,32.25,24.41-4.96-8.26-13.84-15.47-23.89-15.09-3.35.78-5.74,3.7-2.51,6.39,0,0,0,.01.02.02-.02-.03-.04-.05-.06-.08.03.04.05.07.08.11,0,0-.01-.01-.02-.02,6,8.77,18.74,5.97,26.83,11.21,1.23,9.55,2.67,19.14,2.69,28.8-3.57-8.66-21-26.56-30.39-18.12-.2.11-.27.38-.17.59-.06.79.48,1.48.73,2.2,0,0,0-.02,0-.03.01.03.02.05.03.08,0,0,0,0,0-.01,4.3,10.99,18.85,9.52,27.18,15.75,0,0-.01-.01-.02-.02.2.16.4.32.6.48,0,0,0,0-.01-.01.68.62,1.52,1.12,2.05,1.86-.04,8.56-.85,17.12-2.22,25.57-.35-1-.76-1.97-1.17-2.95.01.03.03.06.04.09,0,0,0-.02-.01-.03-.05-.13-.1-.26-.16-.39.02.04.04.09.05.13-7.38-26.95-34.68-27.47-20.22-10.01,6.65,4.88,13.9,8.9,20.19,14.26-.05-.04-.11-.08-.16-.13.28.22.55.46.79.73-.83,10.18-4.71,20.04-8.36,29.54-2.04-32.98-26.29-36.98-15.81-16.11,4.88,6.46,11.2,11.77,14.42,19.37-.68,1.76-1.43,3.49-2.25,5.19-.82,1.7-1.69,3.36-2.63,4.99-.94,1.63-1.93,3.23-2.97,4.8-1.04,1.57-2.03,3.13-3.17,4.63-1.14,1.5-2.49,3.27-3.71,4.71-.59.69-.46,1.21-.18,1.45.31.26.73.39,1.78-.9.82-1.02,2.81-3.36,3.62-4.57.59-.88,1.09-1.58,1.81-2.51.02-.02.1-.14.13-.13,34.14,1.17,35.86-34.24,10.06-10.6-.02.02-.04.04-.06.06,0,0,0,0,.01-.01,0,0-.01.01-.01.01-.06.05-.11.1-.17.16,0,0,.02-.02.02-.02-.04.04-.08.07-.12.11,0,0,0,0,0,0,0,0-.02.02-.03.02.02-.02.04-.03.05-.05-2.34,1.89-4.53,3.94-6.79,5.92,2.32-3.91,4.11-8.1,5.92-12.26.33-.15.54-.58.4-.93,2.34-5.54,4.45-11.19,6.25-16.93,10.04-2.85,25.87-6.68,27.42-19.06ZM395.66,72.37c7.41,7.79-2.6,23.5-8.8,29.57,4.19-9.18,7.42-19.01,8.33-29.1,0,.01,0,.02,0,.03.02-.24.04-.48.06-.72.15.04.28.13.41.22ZM386.28,100.56c2.69-6.65,1.85-26.29,8.3-28.43-.44,6.92-2.51,13.58-4.43,20.2,0,0,0-.01,0-.02-1.39,3.46-2.53,7.09-4.46,10.28.25-.66.42-1.35.59-2.03ZM335.78,29.11c-3.99-.74-16.98-1.53-15.57-6.99,6.14.87,11.43,4.68,17.05,7.14-.49-.03-.98-.08-1.47-.15ZM337.32,27.82c-5.64-2.41-11.34-6.92-17.62-6.61,7.05-3.74,13.91,3.38,19.31,7.24-.56-.22-1.14-.4-1.69-.63ZM351.52,16.99c6.19,3.6,3.48,12.83,3.52,18.8,0-.05.02-.11.02-.16-.02.11-.03.22-.05.33,0-.05.02-.11.02-.16,0,.06-.02.12-.03.19-.08-.44-.18-.86-.29-1.29,0,.01,0,.02.01.04-.62-1.94-.94-3.95-1.47-5.91,0,0,0,.01,0,.02-1.47-3.83-.85-8.06-2.29-11.84.18-.04.36-.01.54,0ZM352.24,32.77s.01.03.02.04c-.03-.08-.06-.15-.09-.23,0,0,0,.02.01.03-.02-.05-.04-.1-.06-.15,0,0,0,0,0,0-.03-.08-.06-.16-.1-.24,0,.02.02.04.02.06-1.34-4.42-5.01-11.28-1.51-15.16.16.57.46,1.09.61,1.67,0,0,0-.02,0-.03,0,.02,0,.04.01.06,0,0,0-.01,0-.02.34,3.74.67,7.47,1.75,11.09,0-.03-.01-.05-.02-.08.38,1.59.52,3.22,1.01,4.79,0-.02,0-.04-.01-.06,0,.03.01.07.02.1,0,0,0,0,0,0,.33,1.31.43,2.66.6,4.01-.27-.64-.49-1.29-.75-1.94,0,.01,0,.02.01.03-.5-1.32-.99-2.65-1.53-3.95ZM334.93,46.1c6.05-5.38,15.86-4.25,22.64-.85-.17,0-.34.01-.51,0,.03,0,.06,0,.09,0-3.55-.45-7.06.25-10.61.51.05-.01.09-.02.14-.03-4.1.36-8.24,1.75-12.36,1.25.18-.31.38-.61.61-.89ZM350.24,46.25s-.02,0-.03,0c.01,0,.02,0,.03,0ZM355.88,46.04c-4.6,1.14-8.99,3.06-13.65,3.97,0,0,0,0,0,0-.03,0-.06.01-.09.02,0,0,.01,0,.02,0-2.82.58-6.08.63-7.87-2.03,3.01.41,6.17-.17,9.15-.67-.05.01-.1.02-.15.03,1.91-.33,3.83-.56,5.75-.85,0,0,0,0,0,0,.04,0,.08-.02.12-.02-.01,0-.02,0-.03,0,2.4-.57,4.83-1.02,7.28-.61-.18.05-.35.11-.53.16ZM367.6,32.28c.4.11.7.39.97.69-.02-.02-.04-.05-.06-.07,3.39,5.92.79,13.84-.96,20.01,0,0,0-.01,0-.02,0,.03-.02.05-.03.08-.26-6.89-.26-13.85-.16-20.73.08.01.16.02.24.04ZM365.09,47.34s0,0,0-.01c0,.01,0,.02,0,.04,0,0,0-.02,0-.03ZM366.46,50.22c-1.15-5.37-4.68-13.7.08-17.95-.21,6.19-.26,12.44.1,18.63-.05-.23-.11-.46-.18-.69ZM342.1,59.59c5.71-6.79,21-3.32,27.22,1.4-7.35-2.07-14.94-.45-22.42-.71.04,0,.08,0,.12,0-.97-.12-1.93.05-2.9,0,.04,0,.08,0,.12.01-.19-.02-.38-.03-.57-.04.02,0,.04,0,.06,0-.39-.02-.79-.03-1.15-.18,0,0,.02,0,.03.01-.03,0-.05-.02-.08-.03,0,0,.02,0,.02,0-.19-.07-.38-.12-.58-.16.03-.11.07-.21.12-.32ZM342.66,60.1s-.02,0-.03-.01c.01,0,.02,0,.03.01ZM366.19,61.54c-5.76.65-11.41,2.17-17.22,2.41.02,0,.05,0,.08,0-1.76.06-3.62.12-5.22-.71,0,0,.02.01.03.02-.02-.01-.04-.02-.07-.04,0,0,0,0,.01,0-.98-.44-1.45-1.46-1.75-2.42,8.48,1.68,17.35-1.84,25.8.72-.27,0-.53-.01-.8,0,0,0,.02,0,.03,0-.3.01-.59.01-.89.02ZM381.35,46.69c8.74,7.12,2.43,21.68-1.52,30.07,2.03-9.94,1.18-20.05,1.02-30.12.17-.02.33.02.5.05ZM378.81,65.55c-.48-3.27-1.25-6.51-1.4-9.81,0,.02,0,.04,0,.07-.02-3.04-.26-7.47,2.88-9.05-.07,9.69.92,19.49-1.12,29.04.24-3.43.39-6.86-.36-10.24ZM354.47,76.35c8.73-4.46,19.04,4.5,24.32,11.09,0,0,0,0,0,0,0,0,.01.02.02.03,0,0,0,0,0,0,.02.03.05.06.07.09,0,0,0-.01-.01-.02.11.15.23.3.34.45,0,0,0,0,0,0,.04.05.08.11.12.16,0,0-.01-.02-.02-.03.07.09.13.19.2.28-5.57-3.47-11.29-6.79-17.7-8.47,0,0,0,0,0,0-1-.38-2.03-.64-3.04-.97,0,0,0,0,.01,0-.01,0-.02,0-.03-.01,0,0,0,0,.01,0-.34-.12-.69-.23-1.03-.34.02,0,.04.01.06.02-.22-.07-.44-.15-.66-.22.02,0,.04.01.05.02-.07-.02-.14-.05-.21-.07.02,0,.04.01.05.02-.6-.21-1.16-.53-1.69-.89.01,0,.03.02.04.03-.41-.28-.83-.53-1.3-.71.11-.17.26-.3.41-.45ZM376.79,88.02c-7.77-2.14-20.08-2.01-22.91-10.92,1.17.49,2.08,1.47,3.34,1.79-.02,0-.04-.01-.05-.02,1.16.43,2.33.81,3.51,1.17,0,0,0,0,0,0,.43.16.85.32,1.28.47,0,0-.01,0-.02,0,.13.05.27.09.4.14,0,0,0,0,0,0,.16.05.31.11.47.16-.02,0-.05-.02-.07-.03.12.04.24.08.36.12,0,0,0,0,0,0,.02,0,.05.02.07.02,0,0,0,0-.01,0,.3.1.61.21.91.31,0,0,0,0,0,0,.02,0,.05.01.07.02-.01,0-.02,0-.03,0,.04.01.09.03.13.04-.03,0-.05-.02-.08-.02,3.45,1.32,6.94,2.71,9.96,4.87,0,0-.01,0-.02-.01.09.06.18.12.27.18-.03-.02-.05-.04-.08-.05,1.2.88,2.64,1.34,3.85,2.2-.44-.15-.89-.29-1.34-.42ZM380.32,90.87s.04.03.06.04c-.02-.01-.04-.03-.06-.04ZM390,185.74c-1.62,9.58-15.32,13.03-23.71,12.89,2.31-1.64,4.83-2.86,7.37-4.08-.04.02-.08.04-.12.06,5.52-3,12.25-5.47,15.94-10.76.36.55.5,1.24.52,1.89ZM373.06,192.15c4.57-3.62,9.18-9.2,15.5-8.91-4.53,6.11-12.59,8.74-19.19,12.13,1.18-1.13,2.41-2.2,3.69-3.21ZM358.16,152.25c-.05,0-.11-.02-.16-.02,10.26,3.77,12.3,18.51,13.71,28.12-.59-2.3-1.24-4.61-2.44-6.67,0,0,0,0,0,.01-4.58-6.89-8.82-14-12.58-21.41.47-.15.98-.07,1.46-.03ZM369.36,176.82c-4.51-7.75-16.53-13.76-13.31-24.09,3.49,6.18,6.41,12.84,11.07,18.32-.02-.02-.04-.04-.05-.06,1.57,2.3,2.72,4.98,3.35,7.7-.34-.63-.69-1.26-1.07-1.87ZM383.07,160.48c6.09-5.62,10.21-19.21,20.19-17.37-5.41,8.36-14.02,14.16-21.98,19.86.54-.87,1.17-1.68,1.79-2.49ZM401.19,109.63c3.85,8.67-7.83,16.86-14.41,20.55,5.06-6.7,10.69-13.36,13.68-21.31.28.22.5.49.73.76ZM388.49,125.07c1.89-2.69,2.85-5.78,4.01-8.81,0,0,0,0,0,0,.01-.03.02-.05.04-.08,0,.02-.01.03-.02.05,1.72-2.91,3.13-7.81,7.22-7.69-1.39,4.01-3.76,7.54-6.11,11.03.02-.03.04-.06.06-.09-.2.3-.41.59-.61.89,0,0,0-.01.01-.02-.02.03-.04.06-.06.09.02-.03.04-.06.06-.09-.04.06-.08.12-.12.18.02-.03.04-.06.06-.09-.04.06-.07.11-.11.17.02-.03.04-.06.06-.09-.71,1.05-1.47,2.07-2.16,3.14.02-.03.04-.06.06-.09-1.66,2.03-3.08,4.24-4.79,6.24.83-1.57,1.56-3.19,2.41-4.74ZM354.26,102.08c10.06-5.82,23.41,9.11,28.09,17.12-4.92-4.8-10.89-8.77-17.23-11.42.04.02.08.04.12.06-3.8-1.69-7.59-3.34-11.1-5.56.04-.07.07-.14.12-.2ZM374.4,114.26s-.02-.02-.03-.02c0,0,.02.02.03.02ZM379.52,118.38c-7.98-4.56-20.49-3.72-24.72-13.24,0,0,0,0,0,0-.24-.62-.54-1.22-.78-1.85,4.48,3.31,9.85,4.97,14.94,7.12,3.82,2.71,7.83,5.3,11.37,8.35-.27-.13-.54-.27-.81-.39ZM358.64,124.97c10.76-1.33,17.03,11.09,20.2,19.65-3.46-4.19-7.59-7.78-11.48-11.57,0,0,0,0,0,0-.05-.04-.1-.08-.14-.12,0,0,.02.02.03.02-.01-.01-.03-.02-.04-.03.02.01.03.03.05.04-.05-.04-.09-.08-.14-.12,0,0,.02.01.02.02-3.01-2.6-5.76-5.48-9.26-7.45.24-.18.49-.32.76-.45ZM376.49,144.78c-6.48-5.7-18.85-8.24-19.32-18.27,7.63,5.13,13.85,12.18,20.14,18.83-.27-.19-.54-.38-.82-.57ZM405.08,148.18c-2.46,8.94-13.19,13.23-21.53,14.98,6.34-4.24,12.59-8.96,17.49-14.89-.02.02-.03.04-.05.06.1-.12.2-.24.3-.36,0,0-.01.01-.02.02,1.1-1.27,2.06-2.66,2.78-4.18,1.01,1.21,1.24,2.85,1.03,4.38Z"/>
  <path class="cls-2" d="M401.37,147.85s-.03.04-.05.06c.02-.02.03-.04.05-.06Z"/>
  <path class="cls-2" d="M401.29,147.95s0,0-.01.01c.01-.02.03-.03.04-.05,0,.01-.02.02-.03.03Z"/>
  <path class="cls-2" d="M367.32,133.03s.02.02.03.03c-.04-.03-.07-.06-.11-.1.03.02.05.04.08.07Z"/>
  <path class="cls-2" d="M367.44,133.13s.03.03.05.04c-.02-.01-.03-.03-.05-.04Z"/>
  <path class="cls-2" d="M363.11,80.9s0,0-.01,0c.02,0,.03.01.05.02-.01,0-.02,0-.03-.01Z"/>
  <path class="cls-2" d="M374.52,86.4s-.05-.04-.08-.05c.03.02.05.04.08.05Z"/>
  <path class="cls-2" d="M343.89,61.16s-.08,0-.12,0c.04,0,.08,0,.12,0Z"/>
  <path class="cls-2" d="M353.91,34.62s0-.02,0-.03c0,0,0,.02,0,.03,0,0,0,0,0,0Z"/>
  <path class="cls-2" d="M35.08,137.71c0,.07.01.14.02.21,0-.07-.01-.14-.02-.21Z"/>
  <path class="cls-2" d="M82.68,29.16s.08-.03.12-.05c-.04.02-.08.03-.12.05Z"/>
  <path class="cls-2" d="M63.51,36.63s0-.02,0-.03c0,0,0,.02,0,.03Z"/>
  <path class="cls-2" d="M67.57,32.46s-.03.08-.05.12c.02-.04.03-.08.05-.12,0,0,0,0,0,0Z"/>
  <path class="cls-2" d="M83.17,50.6s.05-.02.08-.03c-.03,0-.05.02-.08.03Z"/>
  <path class="cls-2" d="M72.58,42.47s.06,0,.08,0c-.03,0-.06,0-.08,0Z"/>
  <path class="cls-2" d="M49.3,42.83s0,.05,0,.07c0-.02,0-.05,0-.07Z"/>
  <path class="cls-2" d="M75.89,63.23s0,0-.01,0c0,0,.02,0,.03-.01,0,0,0,0-.01,0Z"/>
  <path class="cls-2" d="M71.46,64.55s.05,0,.08,0c-.03,0-.05,0-.08,0Z"/>
  <path class="cls-2" d="M34.88,66.36s.01.06.02.09c0-.03-.01-.06-.02-.09Z"/>
  <path class="cls-2" d="M40.84,87.52s.02-.02.03-.03c0,0,0,.01-.01.02.01-.02.02-.03.04-.05-.02.02-.03.05-.05.07Z"/>
  <path class="cls-2" d="M41.47,85.33s-.02.02-.03.04c0-.01.02-.02.03-.04Z"/>
  <path class="cls-2" d="M65.4,80.26s0,0,0,.01h0Z"/>
  <path class="cls-2" d="M26.98,71.93s-.04-.03-.06-.05c.02.01.04.03.06.05Z"/>
  <path class="cls-2" d="M38.74,120.55c-.05.04-.11.09-.16.13.05-.04.11-.09.16-.13Z"/>
  <path class="cls-2" d="M38.57,120.68s-.03.03-.05.04c.02-.01.03-.03.05-.04Z"/>
  <path class="cls-2" d="M62.47,100.01s-.02,0-.03,0c0,0,.02,0,.03,0Z"/>
  <path class="cls-2" d="M65.7,104.95s-.01.03-.02.05c0-.02.01-.03.02-.05Z"/>
  <path class="cls-2" d="M27.71,128.28s-.04-.03-.06-.05c.02.02.04.03.06.05Z"/>
  <path class="cls-2" d="M27.19,116.26s0,0,0,0c0,0,0-.02-.01-.03,0,0,0,.02.01.02Z"/>
  <path class="cls-2" d="M34.56,156.38s0,0,0,0c0,0,0,0,0,0Z"/>
  <path class="cls-2" d="M40.53,166.25c1.79,5.74,3.9,11.39,6.25,16.93-.14.35.07.78.4.93,1.81,4.16,3.6,8.35,5.92,12.26-2.26-1.98-4.45-4.03-6.79-5.92.02.02.04.03.05.05,0,0-.02-.02-.03-.02,0,0,0,0,0,0-.04-.04-.08-.08-.12-.11,0,0,.02.02.02.02-.06-.05-.11-.1-.17-.16,0,0,0,0-.01-.01,0,0,0,0,.01.01-.02-.02-.04-.04-.06-.06-25.79-23.63-24.08,11.77,10.06,10.6.02,0,.11.11.13.13.72.92,1.22,1.63,1.81,2.51.81,1.21,2.8,3.56,3.62,4.57,1.04,1.29,1.47,1.16,1.78.9.28-.24.41-.76-.18-1.45-1.22-1.44-2.57-3.21-3.71-4.71-1.14-1.5-2.12-3.06-3.17-4.63-1.04-1.57-2.04-3.17-2.97-4.8-.94-1.63-1.82-3.3-2.63-4.99-.82-1.7-1.57-3.43-2.25-5.19,3.22-7.61,9.54-12.91,14.42-19.37,10.48-20.86-13.76-16.87-15.81,16.11-3.64-9.5-7.53-19.36-8.36-29.54.24-.27.51-.51.79-.73-.05.04-.11.08-.16.13,6.29-5.36,13.54-9.38,20.19-14.26,14.46-17.46-12.85-16.95-20.22,10.01.02-.04.04-.09.05-.13-.05.13-.11.26-.16.39,0,0,0,.02-.01.03.01-.03.02-.06.04-.09-.4.98-.82,1.95-1.17,2.95-1.37-8.45-2.18-17.01-2.22-25.57.54-.74,1.38-1.24,2.05-1.86,0,0,0,0-.01.01.2-.16.4-.32.6-.48,0,0-.01.01-.02.02,8.33-6.22,22.89-4.76,27.18-15.75,0,0,0,0,0,.01.01-.03.02-.05.03-.08,0,0,0,.02,0,.03.25-.72.79-1.41.73-2.2.1-.2.04-.48-.17-.59-9.39-8.45-26.82,9.46-30.39,18.12.02-9.66,1.46-19.24,2.69-28.8,8.1-5.24,20.83-2.44,26.83-11.21,0,0-.01.02-.02.02.03-.04.06-.07.08-.11-.02.03-.04.05-.06.08,0,0,0-.01.02-.02,3.24-2.68.84-5.61-2.51-6.39-10.05-.38-18.93,6.83-23.89,15.09,9.89-33.05,4.81-27.19,32.25-24.41-.03,0-.05,0-.08,0,.07,0,.13,0,.2,0-.02,0-.03,0-.05,0,.06,0,.13,0,.19,0,.03,0,.06,0,.08,0-.01,0-.02,0-.03,0,7.06.63,9.55-6.04,2.12-8.41-7.85-1.92-17.6-.33-23.98,4.69,1.71-2.95,3.41-5.92,5.56-8.58-.03.04-.06.08-.1.12,1.73-2.09,3.45-4.19,5.23-6.24,5.37.27,10.44,3.4,15.79,4.31,3.52.9,8.17,1.14,10.03-2.64-3.03-8.43-18.26-6.67-24.62-3.02,4.64-5.02,9.48-9.84,15.43-13.33.92.24,1.83-.7,2.83-.62,0,0-.02,0-.03,0,6.48-1.11,14.02-.66,19.35-5.05,5.51-4.67-2.13-7.85-6.46-6.14,0,0,.02,0,.03,0-6.06,2.46-11.8,6.46-16.33,11.09-3.41,2.35-7.04,4.46-9.86,7.54.3-.72.6-1.43.88-2.16-.02.05-.04.1-.06.15.17-.43.33-.86.5-1.28-.02.05-.04.1-.06.15.05-.12.1-.24.14-.36-.02.05-.04.1-.06.15.1-.24.19-.49.29-.73-.01.03-.02.06-.04.09,1.48-5.08,6.59-14.2,1.44-18.2.02,0,.04.02.06.02-.05-.02-.09-.04-.14-.06.02,0,.03.01.05.02-9.14-.77-6.29,14.82-6.06,20.55,0-.03,0-.06-.01-.1,0,.05.01.11.02.16,0-.01,0-.02,0-.03.26,1.62.06,3.3-.09,4.82-3.81,3.73-7.26,7.83-10.56,12.01.39-2.1,1.29-4.06,1.74-6.14,0,0,0,0,0,.01,0-.02,0-.04.01-.06,0-.03.01-.07.02-.1,0,.02-.01.05-.02.07.01-.06.02-.12.04-.18,0,.02,0,.03,0,.05,6.5-23.45-12.37-20.17-3.08,5.8,0-.02-.01-.04-.02-.07.16.57.43,1.1.57,1.67-4.37,6.82-8.79,13.72-10.93,21.61-1.08-8.22,2.37-16.13,1.75-24.32-3.57-16.04-17.39,2.47-2.78,27.43-2.95,7.87-3.68,16.24-4.71,24.5-2.11-4.62-2.43-9.88-3.56-14.8,0,0,0,.01,0,.02,0-.02,0-.04,0-.06,0,0,0,.02,0,.02,0-.06-.02-.13-.03-.19,0,0,0,.01,0,.02,0-.07-.02-.13-.03-.2,0,.01,0,.03,0,.04-.03-.19-.06-.39-.09-.58,0,.04.01.07.02.11-1.16-5.39-.5-12.09-4.76-16.17,0,0,.01,0,.02.01-2.83-2.41-5.58,1.12-6.36,3.74-2.05,11.65,6.48,22.74,14.5,30.3-.94,7.97-1.09,16.02-.69,24.03-4.08-6.63-5.99-14.38-10.63-20.63-3.59-3.68-7.53-.01-7,4.32,1.05,6.14,5.97,10.97,10.81,14.51,0,0-.01,0-.02-.01.04.03.07.06.11.08,0,0-.02-.01-.03-.02.1.08.21.16.31.24-.04-.03-.07-.06-.11-.09,2.08,1.72,4.73,2.55,6.73,4.36.09,1.39.22,2.77.36,4.15,0-.03,0-.05,0-.08.02.2.04.41.06.61,0-.07-.01-.14-.02-.21.77,8.61,2.32,17.13,4.49,25.49-1.31-2.2-3.04-4.1-4.69-6.04,0,.01.02.03.03.04-.04-.05-.08-.1-.12-.15,0,0,0,0,.01.01-.05-.06-.09-.11-.14-.17.03.04.06.08.09.11-.05-.06-.09-.12-.14-.18.01.01.02.03.03.04-.02-.03-.05-.06-.07-.09.02.02.03.04.05.06-.01-.02-.02-.03-.03-.05,0,0,.01.02.02.03-4.14-5.77-8.29-14.07-16.05-15.04-3.24-.31-5.54,2.83-5.4,5.85,1.55,12.39,17.39,16.21,27.42,19.06ZM24.45,72.15c.02.24.05.48.06.72,0-.01,0-.02,0-.03.91,10.09,4.14,19.92,8.33,29.1-6.2-6.07-16.21-21.77-8.8-29.57.13-.09.26-.18.41-.22ZM34,102.59c-1.94-3.2-3.08-6.83-4.46-10.28,0,0,0,.01,0,.02-1.92-6.62-4-13.28-4.43-20.2,6.45,2.14,5.61,21.79,8.3,28.43.17.69.34,1.37.59,2.03ZM82.45,29.25c5.62-2.46,10.91-6.27,17.05-7.14,1.41,5.46-11.59,6.25-15.57,6.99-.49.07-.98.11-1.47.15ZM80.69,28.45c5.4-3.87,12.26-10.99,19.31-7.24-6.28-.3-11.98,4.21-17.62,6.61-.56.23-1.13.41-1.69.63ZM68.71,16.99c-1.44,3.77-.83,8.01-2.29,11.84,0,0,0-.01,0-.02-.53,1.96-.85,3.97-1.47,5.91,0-.01,0-.03.01-.04-.1.43-.21.86-.29,1.29,0-.06-.02-.12-.03-.19,0,.05.02.11.02.16-.02-.11-.03-.22-.05-.33,0,.05.02.11.02.16.04-5.97-2.66-15.2,3.52-18.8.18-.01.36-.04.54,0ZM65.93,36.72s0-.02.01-.03c-.26.64-.48,1.3-.75,1.94.16-1.34.26-2.69.6-4.01,0,0,0,0,0,0,0-.03.01-.07.02-.1,0,.02,0,.04-.01.06.49-1.56.63-3.2,1.01-4.79,0,.03-.01.05-.02.08,1.08-3.62,1.41-7.35,1.75-11.09,0,0,0,.01,0,.02,0-.02,0-.04.01-.06,0,0,0,.02,0,.03.15-.58.45-1.1.61-1.67,3.51,3.88-.16,10.74-1.51,15.16,0-.02.02-.04.02-.06-.03.08-.06.16-.09.24,0,0,0,0,0,0-.02.05-.04.1-.06.15,0,0,0-.02.01-.03-.03.08-.06.15-.09.23,0-.01.01-.03.02-.04-.54,1.31-1.02,2.63-1.53,3.95ZM85.37,46.98c-4.12.5-8.26-.89-12.36-1.25.05.01.09.02.14.03-3.54-.26-7.06-.96-10.61-.51.03,0,.06,0,.09,0-.17.01-.34,0-.51,0,6.78-3.4,16.6-4.53,22.64.85.23.28.43.57.61.89ZM69.49,46.26s-.02,0-.03,0c.01,0,.02,0,.03,0ZM63.29,45.88c2.45-.41,4.88.04,7.28.61,0,0-.02,0-.03,0,.04,0,.08.02.12.02,0,0,0,0,0,0,1.92.28,3.84.51,5.75.85-.05-.01-.1-.02-.15-.03,2.99.5,6.15,1.07,9.15.67-1.78,2.66-5.04,2.6-7.87,2.03,0,0,.01,0,.02,0-.03,0-.06-.01-.09-.02,0,0,0,0,0,0-4.67-.91-9.05-2.82-13.65-3.97-.18-.05-.35-.11-.53-.16ZM52.34,32.24c.1,6.87.1,13.83-.16,20.73,0-.03-.02-.05-.03-.08,0,0,0,.01,0,.02-1.75-6.17-4.35-14.09-.96-20.01-.02.02-.04.05-.07.07.27-.3.57-.58.97-.69.08-.02.16-.03.24-.04ZM54.6,47.36s0-.02,0-.04c0,0,0,0,0,.01,0,0,0,.02,0,.03ZM53.05,50.91c.35-6.2.31-12.44.1-18.63,4.76,4.25,1.24,12.58.08,17.95-.07.23-.13.46-.18.69ZM77.71,59.9c-.2.04-.39.09-.58.16,0,0,.02,0,.02,0-.03,0-.05.02-.08.03,0,0,.02,0,.03-.01-.37.15-.76.16-1.15.18.02,0,.04,0,.06,0-.19.01-.38.03-.57.04.04,0,.08,0,.12-.01-.97.06-1.93-.12-2.9,0,.04,0,.08,0,.12,0-7.48.26-15.07-1.37-22.42.71,6.22-4.71,21.51-8.19,27.22-1.4.05.1.09.2.12.32ZM77.07,60.09s-.02,0-.03.01c.01,0,.02,0,.03-.01ZM52.62,61.52s.02,0,.03,0c-.27,0-.53,0-.8,0,8.44-2.56,17.31.96,25.8-.72-.3.97-.77,1.98-1.75,2.42,0,0,0,0,.01,0-.02.01-.05.02-.07.04,0,0,.02-.01.03-.02-1.6.83-3.47.76-5.22.71.02,0,.05,0,.08,0-5.81-.24-11.46-1.76-17.22-2.41-.3-.01-.59-.01-.89-.02ZM38.84,46.64c-.16,10.07-1.01,20.18,1.02,30.12-3.95-8.39-10.26-22.95-1.52-30.07.16-.03.33-.08.5-.05ZM40.52,75.8c-2.04-9.55-1.05-19.35-1.12-29.04,3.14,1.58,2.9,6.01,2.88,9.05,0-.02,0-.04,0-.07-.15,3.31-.92,6.54-1.4,9.81-.75,3.39-.6,6.81-.36,10.24ZM65.64,76.79c-.46.18-.89.43-1.3.71.01,0,.03-.02.04-.03-.53.35-1.09.67-1.69.89.02,0,.04-.01.05-.02-.07.02-.14.05-.21.07.02,0,.04-.01.05-.02-.22.07-.44.14-.66.22.02,0,.04-.01.06-.02-.34.11-.69.23-1.03.34,0,0,0,0,.01,0-.01,0-.02,0-.03.01,0,0,0,0,.01,0-1.01.33-2.05.58-3.04.97,0,0,0,0,0,0-6.41,1.68-12.13,5.01-17.7,8.47.07-.09.13-.19.2-.28,0,0-.01.02-.02.03.04-.06.08-.11.12-.16,0,0,0,0,0,0,.12-.15.23-.3.34-.45,0,0,0,.01-.01.02.02-.03.05-.06.07-.09,0,0,0,0,0,0,0,0,.01-.02.02-.03,0,0,0,0,0,0,5.28-6.59,15.59-15.55,24.32-11.09.15.14.3.28.41.45ZM41.56,88.44c1.21-.86,2.65-1.32,3.85-2.2-.03.02-.05.04-.08.05.09-.06.18-.12.27-.18,0,0-.01,0-.02.01,3.03-2.16,6.51-3.55,9.96-4.87-.02,0-.05.01-.08.02.04-.01.09-.03.13-.04-.01,0-.02,0-.03,0,.02,0,.05-.01.07-.02,0,0,0,0,0,0,.31-.1.61-.2.91-.31,0,0,0,0-.01,0,.02,0,.05-.01.07-.02,0,0,0,0,0,0,.12-.04.24-.08.36-.12-.02,0-.05.02-.07.03.16-.05.31-.11.47-.16,0,0,0,0,0,0,.13-.04.27-.09.4-.14,0,0-.01,0-.02,0,.43-.15.85-.32,1.28-.47,0,0,0,0,0,0,1.18-.36,2.35-.74,3.51-1.17-.02,0-.04.01-.05.02,1.26-.32,2.17-1.3,3.34-1.79-2.83,8.92-15.14,8.79-22.91,10.92-.45.13-.9.27-1.34.42ZM39.32,90.92s.04-.03.06-.04c-.02.01-.04.03-.06.04ZM30.22,183.85c3.69,5.29,10.42,7.76,15.94,10.76-.04-.02-.08-.04-.12-.06,2.54,1.23,5.06,2.44,7.37,4.08-8.39.14-22.09-3.32-23.71-12.89.03-.65.16-1.34.52-1.89ZM50.32,195.37c-6.6-3.39-14.66-6.02-19.19-12.13,6.33-.28,10.94,5.29,15.5,8.91,1.28,1.02,2.5,2.09,3.69,3.21ZM63,152.28c-3.76,7.4-8,14.52-12.58,21.41,0,0,0,0,0-.01-1.2,2.06-1.85,4.38-2.44,6.67,1.41-9.61,3.44-24.35,13.71-28.12-.05,0-.11.02-.16.02.49-.05.99-.12,1.46.03ZM49.27,178.69c.64-2.72,1.79-5.39,3.35-7.7-.02.02-.03.04-.05.06,4.66-5.48,7.59-12.14,11.07-18.32,3.22,10.33-8.79,16.34-13.31,24.09-.38.61-.73,1.24-1.07,1.87ZM38.42,162.98c-7.96-5.7-16.57-11.5-21.98-19.86,9.97-1.84,14.1,11.75,20.19,17.37.62.81,1.25,1.63,1.79,2.49ZM19.23,108.88c2.99,7.94,8.62,14.6,13.68,21.31-6.58-3.69-18.26-11.88-14.41-20.55.22-.27.45-.54.73-.76ZM33.62,129.81c-1.71-2-3.12-4.21-4.79-6.24.02.03.04.06.06.09-.69-1.07-1.45-2.09-2.16-3.14.02.03.04.06.06.09-.04-.06-.07-.11-.11-.17.02.03.04.06.06.09-.04-.06-.08-.12-.12-.18.02.03.04.06.06.09-.02-.03-.04-.06-.06-.09,0,0,0,.01.01.02-.2-.3-.41-.59-.61-.89.02.03.04.06.06.09-2.35-3.49-4.72-7.02-6.11-11.03,4.08-.11,5.5,4.78,7.22,7.69,0-.02-.01-.03-.02-.05.01.03.02.05.04.08,0,0,0,0,0,0,1.17,3.03,2.12,6.12,4.01,8.81.86,1.56,1.58,3.18,2.41,4.74ZM65.56,102.28c-3.52,2.22-7.31,3.87-11.1,5.56.04-.02.08-.04.12-.06-6.34,2.65-12.32,6.62-17.23,11.42,4.68-8.01,18.04-22.94,28.09-17.12.05.06.08.13.12.2ZM45.32,114.24s-.02.02-.03.02c0,0,.02-.02.03-.02ZM39.37,118.78c3.54-3.06,7.54-5.65,11.37-8.35,5.08-2.15,10.46-3.8,14.94-7.12-.24.62-.53,1.22-.78,1.85,0,0,0,0,0,0-4.23,9.52-16.75,8.68-24.72,13.24-.27.13-.54.26-.81.39ZM61.81,125.42c-3.5,1.97-6.25,4.85-9.26,7.45,0,0,.02-.01.02-.02-.05.04-.09.08-.14.12.02-.01.03-.03.05-.04-.01.01-.03.02-.04.03,0,0,.02-.02.03-.02-.05.04-.1.08-.14.12,0,0,0,0,0,0-3.89,3.79-8.02,7.37-11.48,11.57,3.17-8.55,9.44-20.97,20.2-19.65.27.13.52.27.76.45ZM42.39,145.34c6.29-6.65,12.51-13.7,20.14-18.83-.48,10.03-12.84,12.57-19.32,18.27-.27.19-.55.37-.82.57ZM15.65,143.8c.72,1.52,1.68,2.91,2.78,4.18,0,0-.01-.01-.02-.02.1.12.2.24.3.36-.02-.02-.03-.04-.05-.06,4.9,5.93,11.14,10.65,17.49,14.89-8.34-1.75-19.07-6.04-21.53-14.98-.21-1.53.02-3.16,1.03-4.38Z"/>
  <path class="cls-2" d="M18.32,147.85s.03.04.05.06c-.02-.02-.03-.04-.05-.06Z"/>
  <path class="cls-2" d="M18.4,147.95s0,0,.01.01c-.01-.02-.03-.03-.04-.05,0,.01.02.02.03.03Z"/>
  <path class="cls-2" d="M52.37,133.03s-.02.02-.03.03c.04-.03.07-.06.11-.1-.03.02-.05.04-.08.07Z"/>
  <path class="cls-2" d="M52.25,133.13s-.03.03-.05.04c.02-.01.03-.03.05-.04Z"/>
  <path class="cls-2" d="M56.58,80.9s0,0,.01,0c-.02,0-.03.01-.05.02.01,0,.02,0,.03-.01Z"/>
  <path class="cls-2" d="M45.17,86.4s.05-.04.08-.05c-.03.02-.05.04-.08.05Z"/>
  <path class="cls-2" d="M75.8,61.16s.08,0,.12,0c-.04,0-.08,0-.12,0Z"/>
  <path class="cls-2" d="M65.79,34.62s0-.02,0-.03c0,0,0,.02,0,.03,0,0,0,0,0,0Z"/>
  <path class="cls-2" d="M210.29,290.1c-14.42,0-28.75-1.77-42.6-5.28-13.45-3.4-26.48-8.43-38.74-14.96-24.07-12.82-45.07-31.43-60.73-53.82-.35-.49-.23-1.18.27-1.52.49-.35,1.18-.23,1.52.27,32.03,45.79,84.48,73.13,140.28,73.13s108.76-27.59,140.76-73.81c.34-.5,1.02-.62,1.52-.28.5.34.62,1.02.28,1.52-15.64,22.58-36.68,41.36-60.84,54.31-12.31,6.59-25.4,11.68-38.91,15.11-13.91,3.54-28.32,5.33-42.81,5.33Z"/>
  <path class="cls-2" d="M209.6,318.29c-24.86,0-49.18-4.34-72.45-12.93-25.48-9.41-48.62-23.5-68.79-41.87-20.17-18.38-36.34-40.11-48.07-64.61C8.14,173.51,1.32,146.29,0,117.96c-.04-.79.57-1.45,1.36-1.49.79-.04,1.45.57,1.49,1.36,5.3,114.14,102.47,202.68,216.62,197.38,107.66-5,192.52-89.86,197.39-197.38.04-.79.71-1.39,1.49-1.36.79.04,1.4.7,1.36,1.49-2.36,52.08-23.98,101.22-60.87,138.36-37.13,37.37-86.58,59.3-139.23,61.75-3.34.16-6.68.23-10,.23Z"/>
  <circle class="cls-2" cx="212" cy="8.35" r="8.35"/>
  <g>
    <path class="cls-2" d="M119.26,118.15h5.11c12.39,0,29.89,1.6,29.89,17.74,0,15.26-15.58,21.42-28.61,21.5l.72,16.46h-7.11v-55.7ZM124.14,119.83l1.52,36.68c11.83-.48,20.86-8.23,20.86-20.62s-11.51-16.06-22.37-16.06Z"/>
    <path class="cls-2" d="M176.4,118.15h7.11v55.94h-7.11v-55.94Z"/>
    <path class="cls-2" d="M208.04,118.15h7.03v32.44h19.58v-32.44h7.11v55.94h-7.11v-18.54l-19.58-2.96v21.5h-7.03v-55.94Z"/>
    <path class="cls-2" d="M275.81,118.15l-2.4,40.43c-.56,9.51,3.92,14.94,12.31,14.94,9.83,0,15.58-6.71,15.58-17.66v-37.72h3.36l.08,35.24c0,12.23-6.15,21.34-19.18,21.34s-19.1-8.63-19.1-20.94v-35.64h9.35Z"/>
  </g>
</svg>