<?xml version="1.0" encoding="UTF-8" standalone="no"?>
<svg
   id="Layer_1"
   data-name="Layer 1"
   viewBox="0 0 419.71 133.29673"
   version="1.1"
   sodipodi:docname="pihu main logo.svg"
   inkscape:export-filename="pihu-makeup-studio-and-salon/public/logo2.svg"
   inkscape:export-xdpi="96"
   inkscape:export-ydpi="96"
   width="419.70999"
   height="133.29674"
   xmlns:inkscape="http://www.inkscape.org/namespaces/inkscape"
   xmlns:sodipodi="http://sodipodi.sourceforge.net/DTD/sodipodi-0.dtd"
   xmlns="http://www.w3.org/2000/svg"
   xmlns:svg="http://www.w3.org/2000/svg">
  <sodipodi:namedview
     id="namedview187"
     pagecolor="#505050"
     bordercolor="#eeeeee"
     borderopacity="1"
     inkscape:showpageshadow="0"
     inkscape:pageopacity="0"
     inkscape:pagecheckerboard="0"
     inkscape:deskcolor="#505050"
     showgrid="false" />
  <defs
     id="defs4">
    <style
       id="style2">
      .cls-1 {
        fill-rule: evenodd;
      }

      .cls-1, .cls-2 {
        fill: #d7b652;
      }
    </style>
  </defs>
  <path
     class="cls-1"
     d="m 138.31927,14.59702 v 0 c -31.2874,18.95348 -62.574791,24.78098 -90.24122,27.723 -5.82749,1.47102 -9.448454,2.94204 -13.125995,5.09199 -2.885456,1.47102 -5.82749,3.62096 -7.298506,5.82749 -2.206525,2.20653 -3.620964,4.35646 -5.091981,6.563 -0.735507,2.20653 -2.206525,3.62097 -3.620964,5.09198 C 17.469587,66.36549 16.055148,67.101 13.848624,67.101 8.0211338,67.83651 -0.69181137,62.74453 0.04369794,57.65255 0.77920607,55.44603 2.2502223,53.29607 3.6646618,51.82506 10.963168,45.26206 21.882637,43.05553 32.066599,40.9056 36.423072,40.17008 42.25056,38.69906 49.549067,37.96356 110.7094,29.92954 112.85936,21.21659 139.79027,8.09059 c 3.62097,-1.47101 15.27595,-3.62096 14.54045,2.20653 v 12.39049 c 1.471,-4.35647 3.62095,-8.03402 6.56299,-10.91947 2.88545,-3.62097 5.82749,-5.09198 10.18396,-5.82749 3.62097,-0.73551 6.563,0.73551 9.44846,3.62097 2.88545,2.94202 5.09197,7.2985 6.56299,12.39048 1.47102,4.35648 2.20652,10.18397 2.20652,16.01146 v 5.09197 c 0.73552,-0.73551 1.47103,-0.73551 2.20653,-1.471 1.47103,-0.73552 2.88546,-1.47102 4.35647,-2.20653 0,-10.18397 0.73551,-21.16002 0.73551,-32.07949 0,-1.47102 0.73551,-2.20652 2.88546,-2.20652 1.47102,-0.73551 2.88545,-0.73551 4.35647,-0.73551 2.20653,0 3.62096,0.73551 5.09198,0.73551 1.47101,0.7355 2.20652,1.47101 2.20652,2.20652 v 23.30997 c 1.47102,-3.62098 2.88546,-7.29852 4.35649,-10.91949 1.471,-3.62096 3.62096,-7.2985 5.09197,-10.18395 2.20653,-2.94204 3.62096,-5.09199 5.82749,-6.563 C 227.88154,1.47102 230.0315,0 232.23801,0 c 3.62097,0 5.8275,1.47102 8.03402,3.62097 1.47101,2.94203 2.88547,5.82748 3.62097,9.44845 0.73551,3.62096 0.73551,8.03402 0.73551,12.39049 0,5.09198 -0.73551,9.44846 -0.73551,13.8615 1.47102,-3.62096 2.20652,-7.2985 4.35647,-11.65497 1.47101,-3.62098 2.88546,-7.2985 4.35648,-10.18397 2.20651,-2.94203 4.35646,-5.82749 5.82749,-7.2985 2.20653,-2.20653 4.35646,-2.94204 6.56299,-2.94204 4.35647,0 7.29851,1.47102 9.44845,4.35648 1.47103,3.62096 2.88546,7.2985 3.62096,11.65497 v 16.01146 c -0.7355,5.09197 -1.47101,10.91947 -1.47101,15.33251 -0.73552,8.76953 -0.73552,18.21798 7.2985,24.04547 25.45991,8.03401 74.22978,-2.20653 90.24122,-8.03401 5.8275,-2.20653 10.91947,-3.62096 14.54043,-4.35646 3.62097,-0.73552 6.56301,-1.47103 8.71295,-2.20653 2.88546,0 5.09199,-0.73551 7.29851,-0.73551 2.88545,0 6.563,0.73551 8.71294,1.47101 2.20653,0 3.62097,1.47103 5.09197,2.94204 1.47103,1.47101 1.47103,4.35647 0.73552,7.2985 -0.73552,1.47103 -1.47102,2.94204 -2.20652,3.62096 -0.73551,1.47102 -2.20653,2.20653 -3.62097,2.20653 -0.73551,0.73551 -2.88545,0.73551 -4.35647,0 -1.47102,-0.73551 -3.62097,-1.47102 -5.09199,-2.94203 -2.20651,-0.73552 -3.62096,-2.20652 -6.56299,-2.94203 -2.20653,-1.47101 -5.09198,-2.20653 -8.03402,-2.20653 -3.62096,-0.73551 -7.2985,0 -11.65497,1.47102 -50.91981,15.33252 -90.24121,11.65497 -100.42518,8.03401 -3.62096,-1.47101 -9.44846,-3.62097 -11.65498,-7.2985 -2.20652,-2.94204 -3.62096,-6.56301 -3.62096,-11.65498 -0.73551,-5.09198 -0.73551,-10.18397 -0.73551,-16.01146 0.73551,-5.82749 0.73551,-10.91946 1.47102,-16.01145 0.73551,-5.09198 0.73551,-8.76952 1.47101,-12.39049 0,-2.94203 -0.7355,-5.09198 -1.47101,-5.09198 -1.47102,0 -2.88547,1.47101 -3.62096,2.94204 -1.47101,2.20652 -2.88546,5.09198 -4.35648,8.03401 -1.47102,2.94204 -2.88545,6.56301 -3.62096,10.18397 -1.47102,3.62096 -2.88546,7.2985 -3.62097,10.91947 -1.47102,3.62096 -2.20653,6.563 -3.62096,9.44844 -0.7355,2.94204 -1.47102,5.092 -1.47102,5.8275 -0.73551,0.7355 -1.47102,1.471 -2.88544,2.20652 h -5.092 c -1.47101,-0.73552 -3.62096,-0.73552 -5.09197,-1.47102 -1.47103,-0.7355 -2.20653,-1.471 -2.20653,-2.20651 0,-1.47102 0,-3.62097 0.7355,-7.29853 0,-2.94201 0,-6.56298 0.73551,-10.91946 0,-3.62097 0.73552,-8.03401 0.73552,-11.65498 0.7355,-4.35647 0.7355,-8.03401 0.7355,-10.91947 V 7.24193 c -1.47102,0 -2.88546,1.47102 -4.35647,3.62097 -2.20652,2.94203 -3.62096,6.563 -5.82749,10.18396 -1.47103,4.35648 -2.88546,8.76952 -5.09198,13.126 -1.47102,4.35647 -2.88546,8.76952 -4.35647,12.39048 v 18.95349 c 0,0.73552 -0.73551,1.47102 -2.88546,2.20653 -1.47102,0 -2.88545,0.73551 -5.09198,0 -1.47101,0 -3.62097,0 -5.09198,-0.73551 -1.47102,0 -2.20652,-0.7355 -2.20652,-1.47102 0,-7.2985 0,-13.8615 0.7355,-20.42451 -0.7355,0.73552 -1.47101,0.73552 -2.20652,1.47102 -2.20653,0.73551 -3.62097,1.47102 -5.09199,2.20652 -0.73551,1.47103 -0.73551,3.62096 -1.471,5.09199 -1.47103,5.09198 -3.62097,9.44846 -7.29852,13.126 -2.88545,3.62096 -7.2985,5.09198 -12.39048,5.82748 -3.62098,0 -6.563,-0.7355 -8.71295,-2.20652 -6.56299,-5.82749 -2.20653,-14.59702 2.20652,-18.21799 2.88545,-2.20651 7.29852,-4.35646 12.39049,-5.82748 0.73551,-2.20653 0.73551,-4.35646 0.73551,-6.56299 0.7355,-4.35647 0,-8.76952 0,-13.126 0,-3.62097 -0.73551,-7.29851 -2.20651,-10.18397 -0.73552,-2.20652 -2.20653,-3.62096 -3.62097,-3.62096 -2.20653,0.73551 -3.62096,1.47102 -5.09199,3.62096 -1.47101,2.20653 -2.88546,4.35648 -4.35648,7.29852 -0.73549,2.94203 -2.20651,6.56299 -2.88545,10.18396 -0.7355,2.94203 -1.47101,5.82749 -2.20653,8.76952 0,6.563 -0.7355,13.126 -1.47101,19.68898 0,7.29853 -0.73551,13.86153 -2.20653,20.42451 -0.7355,6.563 -2.20651,13.126 -3.62096,18.95349 -1.47102,5.82749 -2.88547,10.91947 -5.09197,16.01144 -2.20653,4.35648 -4.35648,8.03401 -7.29851,10.91948 -2.88546,2.94202 -5.8275,4.35646 -9.44846,4.35646 -2.88546,0 -5.82748,-0.7355 -7.2985,-2.94203 -2.20652,-2.20652 -2.88546,-5.82748 -2.20652,-10.18395 0,-5.09199 2.20652,-10.91947 5.09197,-17.48247 3.62097,-7.2985 8.71294,-15.33252 16.01145,-24.78097 0.73551,-4.35647 0.73551,-9.44845 0.73551,-16.01146 0.73551,-5.82748 0.73551,-11.65497 0.73551,-18.21797 0.73551,-6.563 0.73551,-13.126 0.73551,-18.95348 0.73551,-3.62097 0.73551,-7.29851 0.73551,-10.91948 l -0.73551,0.73551 z m 26.93092,53.18291 c 1.47101,0 2.88545,-1.47101 4.35646,-3.62096 1.47102,-2.94203 2.20652,-6.56301 2.88547,-10.91947 v -0.73551 c -3.62096,0.73551 -6.563,2.20652 -8.71296,3.62097 -3.62096,2.94203 -3.62096,12.39048 1.47103,11.65497 z m -42.20687,59.80248 c 0.73551,0.73551 1.47102,0 2.88546,-1.471 1.47101,-2.20653 2.20652,-4.35649 3.62097,-8.03403 1.471,-2.94203 2.88544,-7.29851 3.62096,-13.126 0.7355,-5.09197 2.20652,-11.65497 2.20652,-18.95347 -4.35648,6.563 -7.29851,12.39049 -9.44845,17.48246 -2.20653,4.35648 -3.62096,8.76953 -4.35648,12.3905 -0.73551,3.62096 -1.47101,6.56298 -0.73551,8.76951 0,1.47103 0.73551,2.94203 2.20653,2.94203 z"
     id="path6"
     style="stroke-width:5.65775" />
</svg>
